<?xml version="1.0" standalone="no"?>
<!DOCTYPE svg PUBLIC "-//W3C//DTD SVG 20010904//EN"
 "http://www.w3.org/TR/2001/REC-SVG-20010904/DTD/svg10.dtd">
<svg version="1.0" xmlns="http://www.w3.org/2000/svg"
 width="241.000000pt" height="226.000000pt" viewBox="0 0 241.000000 226.000000"
 preserveAspectRatio="xMidYMid meet">
<metadata>
Created by potrace 1.10, written by Peter Selinger 2001-2011
</metadata>
<g transform="translate(0.000000,226.000000) scale(0.100000,-0.100000)"
fill="#000000" stroke="none">
<path d="M625 2193 c-204 -48 -344 -200 -354 -382 -8 -171 52 -293 192 -389
90 -62 132 -76 242 -76 96 -1 103 0 176 37 231 115 319 355 212 577 -50 103
-168 197 -288 229 -40 11 -142 13 -180 4z m-25 -63 c0 -5 -3 -10 -7 -10 -10 0
-43 -58 -43 -75 0 -13 -16 -15 -35 -3 -5 3 -23 6 -38 6 -32 -1 -45 8 -31 22
19 18 106 60 115 55 5 -4 9 -1 9 4 0 6 7 11 15 11 8 0 15 -4 15 -10z m162 -12
c23 -11 48 -60 48 -94 0 -16 -12 -38 -34 -60 -62 -62 -148 -40 -176 46 -12 37
-12 43 7 68 39 54 99 69 155 40z m108 1 c42 -19 90 -55 90 -68 0 -3 -18 -6
-41 -7 -23 0 -45 -7 -50 -15 -8 -12 -10 -12 -18 1 -5 8 -7 18 -4 22 2 5 -1 15
-7 23 -7 8 -9 15 -4 15 4 0 -2 9 -14 20 -39 37 -21 40 48 9z m-332 -137 c39
-36 50 -88 27 -131 -30 -60 -117 -70 -167 -21 -28 28 -30 35 -25 78 4 37 12
52 38 74 44 37 87 37 127 0z m450 12 c89 -62 46 -194 -63 -194 -35 0 -49 6
-70 28 -36 38 -41 68 -19 110 34 63 105 90 152 56z m-641 -152 c-4 -13 50 -72
58 -64 5 4 4 0 0 -8 -5 -8 -19 -23 -32 -33 -13 -10 -20 -23 -17 -29 4 -7 2 -8
-4 -4 -7 4 -12 2 -12 -3 0 -6 -6 -11 -13 -11 -19 0 -24 140 -5 151 10 7 10 9
1 9 -7 0 -13 5 -13 10 0 7 6 7 20 0 11 -6 19 -14 17 -18z m409 12 c14 -10 32
-30 40 -47 48 -92 -91 -174 -167 -98 -46 47 -38 115 19 145 36 20 77 20 108 0z
m340 -114 c-3 -30 -5 -56 -5 -57 -3 -12 -24 2 -32 21 -6 13 -22 30 -35 37 -32
17 -30 29 11 68 19 18 35 40 36 49 0 9 7 -1 15 -23 10 -26 13 -59 10 -95z
m-549 -24 c23 -20 28 -32 28 -69 0 -70 -28 -101 -95 -105 -43 -3 -57 1 -76 19
-47 44 -43 125 9 158 44 28 99 27 134 -3z m451 -1 c41 -34 49 -75 25 -123 -46
-89 -155 -76 -193 22 -34 92 90 166 168 101z m-223 -130 c27 -28 35 -44 35
-71 0 -50 -32 -91 -82 -104 -54 -15 -89 0 -117 51 -20 34 -21 44 -11 74 15 45
65 85 107 85 24 0 42 -9 68 -35z m-219 -97 c1 -8 10 -28 20 -43 27 -42 27 -58
1 -40 -12 8 -26 14 -30 14 -4 0 -25 13 -47 28 -43 30 -54 59 -20 50 11 -3 22
-2 25 2 8 14 48 5 51 -11z m381 10 c23 -1 30 -4 26 -15 -7 -18 -113 -79 -130
-75 -7 2 -13 -2 -13 -8 0 -6 -5 -8 -12 -4 -7 5 -5 11 7 21 11 7 15 13 11 13
-4 0 0 10 8 22 9 12 16 31 16 41 0 16 5 18 28 12 15 -4 41 -7 59 -7z"/>
<path d="M683 1798 c-30 -39 -15 -73 28 -66 35 5 47 33 25 57 -22 24 -39 27
-53 9z"/>
<path d="M1516 1628 c-3 -13 -6 -33 -6 -45 0 -20 -5 -23 -35 -23 -34 0 -35 1
-35 41 0 36 -2 40 -22 37 -19 -2 -24 -10 -26 -40 -3 -36 -5 -38 -37 -38 -32 0
-34 2 -37 38 -2 30 -7 38 -25 40 -21 3 -23 -1 -23 -37 0 -40 -1 -41 -35 -41
-33 0 -35 2 -35 34 0 58 -15 49 -47 -30 l-31 -74 244 0 c230 0 244 -1 254 -19
6 -13 10 -137 10 -335 0 -312 0 -315 -22 -341 l-23 -26 -508 0 -509 -1 -24 23
-24 22 0 254 c0 233 -1 254 -17 260 -10 3 -26 13 -35 21 -17 14 -18 1 -18
-256 0 -149 4 -281 9 -294 5 -13 21 -36 36 -51 15 -16 24 -31 21 -34 -3 -4 -6
-2 -7 3 0 5 -6 -16 -12 -46 -11 -52 -14 -56 -49 -64 -34 -9 -39 -7 -63 22 -38
46 -84 42 -110 -9 -22 -41 -18 -67 11 -94 35 -33 59 -31 96 5 25 26 37 30 83
30 67 0 80 15 80 90 l-1 56 34 -5 33 -6 1 -102 c2 -91 -1 -105 -19 -125 -29
-32 -53 -83 -53 -113 0 -34 17 -32 38 7 9 17 34 50 55 73 l37 42 0 112 0 111
36 0 36 0 -4 -241 c-4 -214 -6 -242 -21 -250 -25 -14 -49 -67 -42 -90 11 -33
47 -59 82 -59 27 0 37 6 53 32 25 42 25 59 -1 92 -20 26 -21 32 -13 271 l7
245 38 0 39 0 0 -161 c0 -146 -2 -163 -20 -186 -40 -51 -16 -117 47 -129 26
-5 37 -1 57 19 41 41 31 127 -15 127 -19 0 -20 6 -18 165 l2 165 38 0 39 0 0
-170 c0 -163 1 -170 20 -170 26 0 30 19 33 190 l2 145 35 3 35 3 -2 -246 c-2
-201 -5 -250 -18 -268 -29 -41 -16 -99 27 -120 37 -18 64 -12 85 20 20 30 11
90 -17 110 -19 14 -20 24 -20 259 l0 244 34 0 34 0 4 -168 c5 -158 6 -170 32
-219 40 -76 70 -94 108 -64 19 16 20 21 9 34 -7 9 -25 17 -39 19 -33 4 -36 29
-4 43 29 13 23 28 -16 39 l-32 9 0 153 0 154 35 0 35 0 0 -117 c0 -94 4 -126
19 -158 22 -47 76 -113 86 -104 3 4 -6 42 -21 85 -21 61 -28 104 -32 186 l-4
108 36 0 36 0 0 -92 1 -93 79 -85 c44 -46 80 -91 80 -101 0 -26 46 -69 75 -69
36 0 75 42 75 80 0 35 -38 80 -67 80 -10 0 -29 -7 -42 -16 -21 -15 -23 -15
-38 6 -8 12 -37 45 -64 73 l-49 52 6 80 c7 80 14 95 47 95 14 0 17 -9 17 -52
1 -76 22 -100 93 -106 45 -4 59 -9 72 -28 22 -33 68 -32 100 2 30 32 31 49 5
91 -16 27 -26 33 -55 33 -26 0 -39 -6 -51 -25 -11 -17 -25 -25 -44 -25 -49 0
-60 9 -60 50 0 49 -8 70 -28 70 -12 0 -10 6 9 26 l24 26 0 368 0 368 -24 26
c-18 19 -35 26 -63 26 -38 0 -38 0 -38 40 0 22 -4 40 -9 40 -5 0 -16 3 -24 6
-9 3 -17 -3 -21 -18z m-1156 -1048 c0 -23 -24 -32 -45 -16 -16 11 -16 14 -1
29 20 19 46 12 46 -13z m1508 -2 c-2 -15 -10 -23 -23 -23 -13 0 -21 8 -23 23
-3 18 1 22 23 22 22 0 26 -4 23 -22z m-92 -223 c6 -15 -11 -45 -25 -45 -4 0
-16 6 -26 14 -16 12 -17 16 -6 30 17 20 50 21 57 1z m-838 -53 c4 -28 -24 -41
-44 -20 -20 20 -7 50 20 46 13 -2 22 -12 24 -26z m-158 -162 c0 -24 -26 -38
-42 -22 -16 16 -2 42 22 42 13 0 20 -7 20 -20z m416 5 c8 -20 -13 -45 -32 -38
-14 5 -19 34 -7 46 11 12 33 7 39 -8z"/>
<path d="M1955 1442 c-33 -20 -88 -56 -123 -80 l-62 -43 0 -183 c0 -205 -5
-191 80 -238 25 -14 75 -44 112 -66 79 -49 105 -53 114 -17 9 34 -1 626 -10
648 -12 26 -45 21 -111 -21z m54 -316 l2 -254 -86 56 -85 57 0 147 0 147 33
16 c17 8 52 31 77 50 25 18 48 34 51 34 3 1 7 -113 8 -253z"/>
<path d="M1307 1333 c-10 -16 -18 -378 -9 -408 10 -35 41 -44 66 -20 14 15 16
43 14 223 l-3 207 -32 3 c-17 2 -33 -1 -36 -5z"/>
<path d="M841 1208 c-145 -300 -149 -313 -96 -313 30 0 43 16 65 78 l10 27
114 0 114 0 23 -50 c23 -51 44 -66 79 -55 27 8 25 23 -8 86 -185 351 -184 349
-217 349 -21 0 -32 -17 -84 -122z m159 -130 c0 -5 -32 -8 -71 -8 -39 0 -69 4
-67 8 2 4 19 38 37 75 l35 68 33 -68 c18 -37 33 -71 33 -75z m51 -41 c-8 -8
-11 -8 -11 1 0 6 -7 9 -15 6 -18 -7 -20 7 -4 23 9 9 16 8 27 -3 11 -11 12 -18
3 -27z m-210 1 c-28 -10 -36 -5 -27 17 5 13 10 14 28 4 l22 -12 -23 -9z"/>
<path d="M462 476 c-22 -24 -45 -53 -51 -65 -11 -20 -13 -20 -36 -5 -50 33
-117 -27 -101 -91 8 -31 57 -58 91 -49 29 7 55 39 55 67 0 19 82 133 100 139
11 3 2 48 -10 48 -4 0 -26 -20 -48 -44z m-94 -134 c3 -18 -1 -22 -22 -22 -19
0 -26 5 -26 18 0 39 43 43 48 4z"/>
<path d="M1499 207 c-46 -31 -52 -81 -13 -120 30 -30 41 -32 78 -16 36 17 52
61 36 99 -11 28 -44 60 -61 60 -3 0 -21 -10 -40 -23z m56 -62 c0 -13 -8 -21
-22 -23 -17 -3 -23 2 -23 16 0 10 3 22 7 26 13 13 38 1 38 -19z"/>
</g>
</svg>
